<svg xmlns="http://www.w3.org/2000/svg" width="300" height="179.91" viewBox="0 0 300 179.91"><defs><style>.cls-1{isolation:isolate;}.cls-2,.cls-7{fill:#1d276d;}.cls-2{fill-rule:evenodd;}.cls-3{fill:#e3001f;}.cls-4{fill:#8c161b;mix-blend-mode:multiply;}.cls-5{fill:#f0856c;}.cls-6{fill:#fff;}</style></defs><title>GB_Unternehmenslogo_2018</title><g class="cls-1"><g id="Ebene_1" data-name="Ebene 1"><path id="_Zusammengesetzter_Pfad_" data-name="&lt;Zusammengesetzter Pfad&gt;" class="cls-2" d="M572.43,222.77a4.79,4.79,0,0,0-3-6.21,4.9,4.9,0,1,0-3.18,9.27A4.78,4.78,0,0,0,572.43,222.77ZM566.57,225a4,4,0,1,1,5.12-2.5A4,4,0,0,1,566.57,225Zm1.57-4-1.4-.48.6-1.75,1.66.56a.86.86,0,0,1,.61,1.18C569.35,221.22,568.77,221.19,568.14,221Zm1.25,1.92c.13-.51.15-1-.39-1.3a1.31,1.31,0,0,0,1.32-1,1.42,1.42,0,0,0-1.09-1.85l-2.36-.82L565.12,223l.68.23.74-2.16,1.64.57c.65.22.62.68.53,1.2s-.37,1-.25,1.31l.75.25A2.73,2.73,0,0,1,569.39,222.9Z" transform="translate(-272.71 -188.68)"/><polygon class="cls-3" points="143.71 57.28 155.44 90.27 187.07 75.24 172.03 106.86 205.02 118.59 172.03 130.33 187.07 161.95 155.44 146.92 143.71 179.91 131.97 146.92 100.35 161.95 115.39 130.33 82.39 118.59 115.39 106.86 100.35 75.24 131.97 90.27 143.71 57.28"/><path class="cls-4" d="M416.48,307.41l43.3,43.23-31.63-15-11.73,33V307.53l-.13-.31.13.13v-.08Zm61.25-.14H416.42L444.74,319Z" transform="translate(-272.71 -188.68)"/><path class="cls-5" d="M416.42,246v61.31L404.68,279Zm11.73,33-11.73,28.31,43.36-43.35Zm-40,16.59-33,11.72h61.32l-43.36-43.35Zm-15,55.09,43.36-43.37L388.1,319Z" transform="translate(-272.71 -188.68)"/><path class="cls-6" d="M445.35,307.27a28.93,28.93,0,1,0-28.93,29.05A29,29,0,0,0,445.35,307.27Z" transform="translate(-272.71 -188.68)"/><path class="cls-7" d="M428.72,312a4.58,4.58,0,0,0,.53,0,5.33,5.33,0,0,0,3.5-2,6.33,6.33,0,0,0-.19-7.79c-2.89-4-3.26-6.33-3-7.53a2.74,2.74,0,0,1,1.25-1.87,3.79,3.79,0,0,1,1.85-.67c-.59.93-.33,2.68.7,4.17,1.15,1.7,4.53,2.79,4.53,2.79s-.06-3.95-1.21-5.64l-.14-.18a4.57,4.57,0,0,0-6.34-1.51c-3.17,1.9-1.81,5.94,1.14,10.3,2.74,4.05.11,7.52-3,7.45-.69-1.45-2.31-2.33-5.06-4.73a5.22,5.22,0,0,1-1.34-3.94,2.32,2.32,0,0,0,.67.11,2.13,2.13,0,0,0,.93-.25.3.3,0,0,0,.17-.25.34.34,0,0,0-.08-.29,2.63,2.63,0,0,1-.66-2.08,1.78,1.78,0,0,0,.53.08,2.13,2.13,0,0,0,.62-.11.35.35,0,0,0,.22-.24.4.4,0,0,0-.05-.32,3.06,3.06,0,0,1-.44-2.64,1.44,1.44,0,0,0,.72.16,1.08,1.08,0,0,0,.32,0,.35.35,0,0,0,.23-.49,5.74,5.74,0,0,1-.15-2.56c.13-1.72.28-3.86-1.29-5.49l0,0c0-.05,0-.09,0-.14a1.43,1.43,0,0,0-1.3-1.51,1.32,1.32,0,0,0-1.18,1.11,12.54,12.54,0,0,0-2.45,0c-.81.07-1.75,1-2.35,1-.44,0-1.76.26-2.25.28-.18,0-.23.62-.23.77s.14.57.14.68c0,1.18.61,1.9,1.85,1.42s2.39-.53,2.83,0a1.93,1.93,0,0,1,.4,1.08,1.61,1.61,0,0,1-.9,1.41,1.72,1.72,0,0,1-2.41-.65l.13,0a1.63,1.63,0,0,1,.9.24.13.13,0,0,0,.08,0,.14.14,0,0,0,.12-.23,2.56,2.56,0,0,0-2.06-1.23,4.41,4.41,0,0,0-1.15.21,4.06,4.06,0,0,1-1,.18,1.39,1.39,0,0,1-.91-.32l-.09,0a.14.14,0,0,0-.09,0,.16.16,0,0,0-.05.17,1.79,1.79,0,0,0,1.76,1.34,5.41,5.41,0,0,0,1.1-.16,2.91,2.91,0,0,0,0,1.32h0v0c1.43-.36,1.92,1.45,3.42.48l0,.05a6.8,6.8,0,0,1-4.4,1.89,4.09,4.09,0,0,1-2.36-.72.37.37,0,0,0-.42,0,.36.36,0,0,0-.12.4,5.85,5.85,0,0,0,.86,1.45,18.8,18.8,0,0,1-5-1.28c-1-.47-1.79-1-1.64-1.54.23-.77.74-1.33.95-2a2.6,2.6,0,0,0-.61-2.43.69.69,0,0,0-.24-.21h-.1c-.26,0-.43.58-1.06.66h-.44c-1.28.17.89,2.76-.77,2.52-.78-.13-.37-2-1.36-2.2l-.21,0a2,2,0,0,0-.51.06,2.7,2.7,0,0,1-.81.15,3.78,3.78,0,0,1-.79-.12h-.1c-.16,0-.27.07-.42.27-.41.51.28.69.14,1.5-.37,2.61,2.14,1.24,2.18,2.07.08,1.36-1.21.81-2,1.2s-1.37,1.22-1,1.49c.9.68-.07,1.32.61,1.65.52.25.44-.09,1.07-.14h.16a4.08,4.08,0,0,1,.78.11h.09c.47-.11.39-1.8,1.25-1.85a.58.58,0,0,1,.22,0c1.41.27,5.43,3.21,7.25,4.81l-.26.23c-.59.48-1.39-.3-1.71,0s.31.87.23,1.38a2.8,2.8,0,0,1-2.37,2.38c-1.22.23-1.75-1.23-2.67-1.77a1.83,1.83,0,0,0-.32-.07,7.55,7.55,0,0,0-2,.38c.09.77.91,1.5.28,2.34.21.43.92.17,1.25.57-.26,1.12-1.5.3-2,1.14a5.22,5.22,0,0,0-.71,2.66.85.85,0,0,1,.47-.05c.37,0,.76.2,1.13.26,1.3.14.89-1.93,2.35-1.71.44.46-.29.92-.29,1.49.86.38.8,1.66,1.65,1.83l.23,0c.78-.95,1.87-2.1,1.36-3.4a2,2,0,0,1,0-.24c2.91-2.46,5.2-3.69,5.47-1,1.53.53.7-2.65,3.59-3.63.32,1.81.69,3.35,4.5,5.55-4-.1-7.65,2.32-8.3,5.43a1.28,1.28,0,0,1,.39,0,2.62,2.62,0,1,1-2.55,3.75c-.33-.67-1.2-1-2.53-.86h-.26v.21c0,.63.47,1.36-.17,1.92.09.47.79.37,1,.79a.69.69,0,0,1-.52.44h-.17l-.51-.05h-.35a.74.74,0,0,0-.48.24,4.53,4.53,0,0,0-1.13,2.22c.54,0,.93.37,1.38.54l.19,0h.17c.66-.09.9-1.16,1.62-1.19a1,1,0,0,1,.46.08c.31.48-.47.74-.57,1.26.8.57.38,1.85,1.35,2.06.88-.72,2-1.52,1.86-2.78l.13-.5a7.69,7.69,0,0,0,4.89-2,1.61,1.61,0,0,1,2.33.43c1.58-2.15,1.3-5.18,1-6.82,1.15-1.54,2.81-1.3,3.38-.49a7.27,7.27,0,0,0,1.74,5.24l.06,0a2.65,2.65,0,0,1,1.59-.66,2.69,2.69,0,0,1,2.87,2.53,2.65,2.65,0,0,1-.25,1.28,1.38,1.38,0,0,1-.1.22l0,.07a2.11,2.11,0,0,1-.26.35,2.67,2.67,0,0,1-1.88.95c-.89.05-1.66-1.14-2.66-.91a8.91,8.91,0,0,0-1.41.69c.23.57,1.08,1,.69,1.77.28.31.87-.06,1.23.18,0,.93-1.24.55-1.55,1.34a4,4,0,0,0-.08,2.26,1,1,0,0,1,.25-.11,6.24,6.24,0,0,1,1.16-.07l.18,0c.81-.31.36-1.52,1.28-1.78a.62.62,0,0,1,.22,0c.45.25-.08.78,0,1.23.89.12,1,1.3,2,1.05.45-.91,1.14-2,.51-2.94l-.23-.16c7-2.49,5.79-9.74,5.79-9.74-1.44.95-4.61-.37-4.19-4.62C428.69,312.52,428.71,312.27,428.72,312ZM417.59,288.1l.31-.27a.66.66,0,0,1,.72-.52,1,1,0,0,1,.89.94A2.63,2.63,0,0,0,417.59,288.1Z" transform="translate(-272.71 -188.68)"/><path class="cls-7" d="M324.65,244.61c-3.06.78-6.7,1.8-6.7,1.8l-4.59-16.79,4.5-1.21a5.73,5.73,0,0,1,3.27-.19l-1.84-6.74a5.65,5.65,0,0,1-2.94,1.51l-4.47,1.21-4.06-14.89s3.42-.95,6.69-1.78a5.74,5.74,0,0,1,3.29-.14l-1.66-6.08s-3.41.83-8.62,2.25c-5.48,1.5-9.22,2.63-9.22,2.63a4.64,4.64,0,0,1,1.73,2.88l11.38,41.69a4.84,4.84,0,0,1,0,3.38s3.77-1.15,9.21-2.64c4.59-1.26,8.63-2.24,8.63-2.24l-1.67-6.12A5.33,5.33,0,0,1,324.65,244.61Z" transform="translate(-272.71 -188.68)"/><path class="cls-7" d="M411.8,194.44a3.6,3.6,0,0,1,3.52,2.06l2.42-5.81a11.41,11.41,0,0,0-7.2-2c-6.21.2-10.11,5.58-9.89,12.21.38,11.95,12.49,17.38,12.77,26.1.14,4.21-1.72,6.42-4.34,6.51a4.23,4.23,0,0,1-4.4-2.73l-2.54,6.11a11.76,11.76,0,0,0,7.71,2.31c7-.23,11.1-5.56,10.87-12.92-.43-13.22-12.44-17.35-12.72-26.17C407.87,196.11,409.56,194.51,411.8,194.44Z" transform="translate(-272.71 -188.68)"/><path class="cls-7" d="M421.93,189.09l-.22,6.29a5.38,5.38,0,0,1,3.23-.61l2.29,0-1.47,40.82a4.63,4.63,0,0,1-1,3.18l4.72.14c2.73.1,4.53.2,4.53.2a4.65,4.65,0,0,1-.8-3.25l1.48-40.82,2.29.1a5.23,5.23,0,0,1,3.18.88l.23-6.34s-4-.24-9.1-.42S421.93,189.09,421.93,189.09Z" transform="translate(-272.71 -188.68)"/><path class="cls-7" d="M471.8,239.68l6.09-42.84a4.58,4.58,0,0,1,1.35-3.05s-2.2-.34-4.58-.68-4.63-.62-4.63-.62a4.61,4.61,0,0,1,.45,3.3l-6.09,42.85a4.68,4.68,0,0,1-1.35,3.05s2,.25,4.61.62,4.59.68,4.59.68A4.63,4.63,0,0,1,471.8,239.68Z" transform="translate(-272.71 -188.68)"/><path class="cls-7" d="M354.61,241l-10.76-18.35c3.36-3,4.85-7.45,3.58-13.31-2-9.26-7.74-13.23-16.6-11.4-3.67.76-8.71,1.94-8.71,1.94a4.61,4.61,0,0,1,1.58,2.95l9.15,42.3a4.62,4.62,0,0,1-.21,3.33s2.16-.52,4.49-1,4.31-.94,4.31-.94a4.58,4.58,0,0,1-1.57-2.93l-3.74-17.3.14,0c.43-.09.93-.21,1.34-.33l10.64,19.23,4.12-.75c2.34-.42,4.52-.78,4.52-.78A7.4,7.4,0,0,1,354.61,241Zm-19.53-19.57-3.94-18.21c5-1.09,7.83,2.43,9,7.71S340.2,220.32,335.08,221.42Z" transform="translate(-272.71 -188.68)"/><path class="cls-7" d="M397.33,233.59c-1.63.07-4,.22-4,.22l-2.61-40.75a4.59,4.59,0,0,1,.7-3.26s-2.23.13-4.58.3-4.7.36-4.7.36a4.57,4.57,0,0,1,1.11,3.14L386,236.78a4.63,4.63,0,0,1-.7,3.27s3.86-.33,8.14-.6,7.45-.39,7.45-.39l-.41-6.35A5.2,5.2,0,0,1,397.33,233.59Z" transform="translate(-272.71 -188.68)"/><path class="cls-7" d="M510.88,199.88s-2.07-.49-4.26-1l-4.1-.89a4.58,4.58,0,0,1,.19,3.32L497,227.1l-2.74-30.73-3.64-.68-3.89-.69a4.69,4.69,0,0,1,.31,3.34l-7.84,42.56a4.48,4.48,0,0,1-1.47,3s1.88.32,4.05.72c2.37.43,4.38.82,4.38.82a4.71,4.71,0,0,1-.3-3.34l4.32-23.48,2.51,28.15,3.06.67,3.52.8,10-45.37A4.66,4.66,0,0,1,510.88,199.88Z" transform="translate(-272.71 -188.68)"/><path class="cls-7" d="M521.18,248.17c-3-.89-6.66-1.9-6.66-1.9l4.66-16.76,4.48,1.26a5.72,5.72,0,0,1,2.91,1.51l1.87-6.72a5.61,5.61,0,0,1-3.29-.21l-4.46-1.26,4.14-14.85s3.42.94,6.66,1.9a5.78,5.78,0,0,1,2.89,1.56l1.69-6.08s-2.84-.88-8.55-2.48-9.26-2.46-9.26-2.46.64,1.09,0,3.36l-11.59,41.63a4.85,4.85,0,0,1-1.75,2.9s4,1,9.26,2.44c4.91,1.37,8.55,2.49,8.55,2.49l1.71-6.09A5.44,5.44,0,0,1,521.18,248.17Z" transform="translate(-272.71 -188.68)"/><path class="cls-7" d="M460.45,197.05a5.77,5.77,0,0,1,3.12,1l.6-6.29s-3.22-.4-8.86-.93c-5.9-.55-9.54-.77-9.54-.77s.82,1,.6,3.3l-4.07,43a4.67,4.67,0,0,1-1.21,3.14s4.05.24,9.55.76c5.08.47,8.85.93,8.85.93l.61-6.3a5.41,5.41,0,0,1-3.26.34c-3.13-.34-6.89-.68-6.89-.68l1.63-17.31,4.63.45a5.71,5.71,0,0,1,3.13,1l.66-6.95a5.6,5.6,0,0,1-3.28.37l-4.61-.44,1.45-15.36S457.1,196.67,460.45,197.05Z" transform="translate(-272.71 -188.68)"/><path class="cls-7" d="M550.46,211.25c-3.78-1.32-8.47-2.8-8.47-2.8a4.71,4.71,0,0,1-.16,3.35l-13.83,41a4.67,4.67,0,0,1-1.89,2.77s2.12.66,4.39,1.42l4.17,1.4a4.59,4.59,0,0,1,.16-3.31l5.65-16.78.14.05c.42.14.91.29,1.32.4l-.72,22s1.74.63,3.92,1.46,4.27,1.64,4.27,1.64a7.53,7.53,0,0,1-.62-3.4l.17-21.25c4.41-.81,8-3.9,9.91-9.58C561.89,220.58,559,214.23,550.46,211.25Zm1.31,15.91c-1.73,5.12-4.74,8.12-9.71,6.44l6-17.66C552.85,217.57,553.49,222.05,551.77,227.16Z" transform="translate(-272.71 -188.68)"/><path class="cls-7" d="M378,215.58l-.15-1.13c-2.34-18-8-23.6-14.91-22.7s-11,7.73-8.59,25.76l.15,1.13.14,1.13c2.34,18,8,23.59,14.91,22.69s11-7.73,8.59-25.75Zm-9.17,21.31c-3.17.41-5.34-6.85-6.78-17.86l-.17-1.35-.18-1.36c-1.43-11-1.19-18.58,2-19s5.34,6.85,6.77,17.85l.18,1.36.17,1.35C372.24,228.9,372,236.48,368.84,236.89Z" transform="translate(-272.71 -188.68)"/><path class="cls-7" d="M298.29,228.37s-4.3,1.38-8.46,2.78a5.51,5.51,0,0,1-3.25.37l2.21,6.31a5.84,5.84,0,0,1,2.87-1.62l.46-.15,5.72,16.39a3.47,3.47,0,0,1-2.6,1.8c-3.91.7-7.91-5.17-11.57-15.66l-.45-1.29-.45-1.29c-3.65-10.49-4.16-18.21-.22-19.58,3.2-1.12,5.43,1.71,6.12,3.38l3.08-6c-3.65-3.41-7.49-4-11.49-2.56-7.1,2.47-10.44,10.26-4.44,27.43l.37,1.08.38,1.07c6,17.19,13.3,21.25,20.52,18.74a14.76,14.76,0,0,0,8.52-7.42l-7.12-20.43A4.58,4.58,0,0,1,298.29,228.37Z" transform="translate(-272.71 -188.68)"/></g></g></svg>